# xmcd
#
# Track frame offsets:
# 150
# 27764
# 56632
# 88496
# 104433
# 119593
# 144455
# 163205
# 201258
#
# Disc length: 2909 seconds
#
#
# Revision: 4
# Processed by: cddbd v1.5.2PL0 Copyright (c) Steve Scherf et al.
# Submitted via: FreeRIP 2.951 
#
DISCID=860b5b09
DTITLE=Hobo - Kövek az útról-Rolling Stones magyarul
DYEAR=1997
DGENRE=Blues
TTITLE0=Adj menedéket!-Gimme Shelter
TTITLE1=Lady Jane - Ahogy felszáradnak a könnyek-Lady Jane
TTITLE2=Éjféli csavargó-Midnight Rambler
TTITLE3=Fesd feketére!-Paint it Black
TTITLE4=Sztárfaló-Star Star
TTITLE5=Nincs több gyengéd suttogás-Angie
TTITLE6=Dobókocka-Tumbling dice
TTITLE7=Mindent nem kaphatsz meg, ami kell-You Can't Always Get What You Want
TTITLE8=Rolling Stones blues '97
EXTD=YEAR: 1997 ID3G:   0\nby Lajos
EXTT0=
EXTT1=
EXTT2=
EXTT3=
EXTT4=
EXTT5=
EXTT6=
EXTT7=
EXTT8=
PLAYORDER=
